{"title":"Hasee Toh Phasee 2014 Hindi Movies CamRip with Sample ~ â˜»rDXâ˜»","uid":9582069,"size":738089407,"categoryP":"video","categoryS":"movies","magnet":"?xt=urn:btih:f8aca14b5a3f99f50ee844c32d3d5c4c7c1804d7&amp;dn=Hasee+Toh+Phasee+2014+Hindi+Movies+CamRip+with+Sample+%7E+%E2%98%BBrDX%E2%98%BB&amp;tr=udp%3A%2F%2Ftracker.openbittorrent.com%3A80&amp;tr=udp%3A%2F%2Fopen.demonii.com%3A1337&amp;tr=udp%3A%2F%2Ftracker.coppersurfer.tk%3A6969&amp;tr=udp%3A%2F%2Fexodus.desync.com%3A6969","seeders":1,"leechers":0,"uploader":"basicssom","files":2,"time":1391782592,"description":" &lt;a href=&quot;http://s5.postimg.org/hgeuxszk7/logo.png&quot; rel=&quot;nofollow&quot; target=&quot;_NEW&quot;&gt;http://s5.postimg.org/hgeuxszk7/logo.png&lt;/a&gt;\n\nHasee Toh Phasee 2014 Hindi Movies CamRip with Sample ~ â˜»rDXâ˜»\n\nPlease check SCREEN SHOTS first :\n &lt;a href=&quot;\nhttp://moviesreview.co.nr/2014/2/HaseeTohPhasee/1.html&quot; rel=&quot;nofollow&quot; target=&quot;_NEW&quot;&gt;\nhttp://moviesreview.co.nr/2014/2/HaseeTohPhasee/1.html&lt;/a&gt; &lt;a href=&quot;\nhttp://moviesreview.co.nr/2014/2/HaseeTohPhasee/2.html&quot; rel=&quot;nofollow&quot; target=&quot;_NEW&quot;&gt;\nhttp://moviesreview.co.nr/2014/2/HaseeTohPhasee/2.html&lt;/a&gt; &lt;a href=&quot;\nhttp://moviesreview.co.nr/2014/2/HaseeTohPhasee/3.html&quot; rel=&quot;nofollow&quot; target=&quot;_NEW&quot;&gt;\nhttp://moviesreview.co.nr/2014/2/HaseeTohPhasee/3.html&lt;/a&gt; &lt;a href=&quot;\nhttp://moviesreview.co.nr/2014/2/HaseeTohPhasee/4.html&quot; rel=&quot;nofollow&quot; target=&quot;_NEW&quot;&gt;\nhttp://moviesreview.co.nr/2014/2/HaseeTohPhasee/4.html&lt;/a&gt; &lt;a href=&quot;\nhttp://moviesreview.co.nr/2014/2/HaseeTohPhasee/5.html&quot; rel=&quot;nofollow&quot; target=&quot;_NEW&quot;&gt;\nhttp://moviesreview.co.nr/2014/2/HaseeTohPhasee/5.html&lt;/a&gt; &lt;a href=&quot;\nhttp://moviesreview.co.nr/2014/2/HaseeTohPhasee/6.html&quot; rel=&quot;nofollow&quot; target=&quot;_NEW&quot;&gt;\nhttp://moviesreview.co.nr/2014/2/HaseeTohPhasee/6.html&lt;/a&gt; &lt;a href=&quot;\nhttp://moviesreview.co.nr/2014/2/HaseeTohPhasee/7.html&quot; rel=&quot;nofollow&quot; target=&quot;_NEW&quot;&gt;\nhttp://moviesreview.co.nr/2014/2/HaseeTohPhasee/7.html&lt;/a&gt; &lt;a href=&quot;\nhttp://moviesreview.co.nr/2014/2/HaseeTohPhasee/8.html&quot; rel=&quot;nofollow&quot; target=&quot;_NEW&quot;&gt;\nhttp://moviesreview.co.nr/2014/2/HaseeTohPhasee/8.html&lt;/a&gt; &lt;a href=&quot;\nhttp://moviesreview.co.nr/2014/2/HaseeTohPhasee/9.html&quot; rel=&quot;nofollow&quot; target=&quot;_NEW&quot;&gt;\nhttp://moviesreview.co.nr/2014/2/HaseeTohPhasee/9.html&lt;/a&gt; &lt;a href=&quot;\nhttp://moviesreview.co.nr/2014/2/HaseeTohPhasee/10.html&quot; rel=&quot;nofollow&quot; target=&quot;_NEW&quot;&gt;\nhttp://moviesreview.co.nr/2014/2/HaseeTohPhasee/10.html&lt;/a&gt;\n\nAll rDX torrents are Seeding From the 1Gbps Seedbox 24X7\n &lt;a href=&quot;\nhttp://istoreimg.com/upload/big/2014/02/07/52f4d1ef84b15.jpg&quot; rel=&quot;nofollow&quot; target=&quot;_NEW&quot;&gt;\nhttp://istoreimg.com/upload/big/2014/02/07/52f4d1ef84b15.jpg&lt;/a&gt;\n &lt;a href=&quot;\nhttp://istoreimg.com/upload/big/2014/02/07/52f4d1f147299.jpg&quot; rel=&quot;nofollow&quot; target=&quot;_NEW&quot;&gt;\nhttp://istoreimg.com/upload/big/2014/02/07/52f4d1f147299.jpg&lt;/a&gt;\n &lt;a href=&quot;\nhttp://istoreimg.com/upload/big/2014/02/07/52f4d1f646e7f.jpg&quot; rel=&quot;nofollow&quot; target=&quot;_NEW&quot;&gt;\nhttp://istoreimg.com/upload/big/2014/02/07/52f4d1f646e7f.jpg&lt;/a&gt;\n\nFormat                                   : Matroska\nFormat version                           : Version 4 / Version 2\nFile size                                : 697 MiB\nDuration                                 : 2h 11mn\nOverall bit rate mode                    : Variable\nOverall bit rate                         : 742 Kbps\nMovie name                               : Hasee Toh Phasee 2014 Hindi Movies CamRip ~ rDX ~\n\nVideo\nID                                       : 1\nFormat                                   : MPEG Video\nFormat version                           : Version 2\nFormat profile                           : Main@Main\nFormat settings, BVOP                    : No\nFormat settings, Matrix                  : Default\nCodec ID                                 : V_MPEG2\nCodec ID/Info                            : MPEG 1 or 2 Video\nDuration                                 : 2h 11mn\nBit rate mode                            : Variable\nBit rate                                 : 600 Kbps\nMaximum bit rate                         : 9 672 Kbps\nWidth                                    : 352 pixels\nHeight                                   : 288 pixels\nDisplay aspect ratio                     : 4:3\nFrame rate mode                          : Constant\nFrame rate                               : 25.000 fps\nStandard                                 : PAL\nColor space                              : YUV\nChroma subsampling                       : 4:2:0\nBit depth                                : 8 bits\nCompression mode                         : Lossy\nBits/(Pixel*Frame)                       : 0.237\nStream size                              : 563 MiB (81%)\nDefault                                  : Yes\nForced                                   : No\n\nAudio\nID                                       : 2\nFormat                                   : MPEG Audio\nFormat version                           : Version 1\nFormat profile                           : Layer 2\nCodec ID                                 : A_MPEG/L2\nCodec ID/Hint                            : MP2\nDuration                                 : 2h 11mn\nBit rate mode                            : Constant\nBit rate                                 : 128 Kbps\nChannel(s)                               : 2 channels\nSampling rate                            : 48.0 KHz\nCompression mode                         : Lossy\nStream size                              : 120 MiB (17%)\nDefault                                  : Yes\nForced                                   : No","torrent":{"xt":"urn:btih:f8aca14b5a3f99f50ee844c32d3d5c4c7c1804d7","amp;dn":"Hasee+Toh+Phasee+2014+Hindi+Movies+CamRip+with+Sample+%7E+%E2%98%BBrDX%E2%98%BB","amp;tr":["udp%3A%2F%2Ftracker.openbittorrent.com%3A80","udp%3A%2F%2Fopen.demonii.com%3A1337","udp%3A%2F%2Ftracker.coppersurfer.tk%3A6969","udp%3A%2F%2Fexodus.desync.com%3A6969"],"infoHash":"f8aca14b5a3f99f50ee844c32d3d5c4c7c1804d7","infoHashBuffer":{"type":"Buffer","data":[248,172,161,75,90,63,153,245,14,232,68,195,45,61,92,76,124,24,4,215]},"announce":[],"urlList":[]}}